<svg width="25" height="25" viewBox="0 0 25 25" fill="none" xmlns="http://www.w3.org/2000/svg">
<path d="M17.7083 2.08325H7.29159C4.4151 2.08325 2.08325 4.4151 2.08325 7.29159V17.7083C2.08325 20.5847 4.4151 22.9166 7.29159 22.9166H17.7083C20.5847 22.9166 22.9166 20.5847 22.9166 17.7083V7.29159C22.9166 4.4151 20.5847 2.08325 17.7083 2.08325Z" stroke="white" stroke-width="2" stroke-linecap="round" stroke-linejoin="round"/>
<path d="M16.6666 11.8438C16.7952 12.7107 16.6471 13.5961 16.2434 14.374C15.8398 15.1519 15.2011 15.7827 14.4183 16.1767C13.6355 16.5708 12.7484 16.7079 11.8831 16.5687C11.0178 16.4294 10.2185 16.0209 9.5988 15.4012C8.97909 14.7815 8.57057 13.9822 8.43134 13.1169C8.29211 12.2516 8.42925 11.3645 8.82327 10.5817C9.21729 9.79886 9.84812 9.16021 10.626 8.75657C11.4039 8.35293 12.2893 8.20485 13.1562 8.3334C14.0405 8.46453 14.8592 8.87659 15.4913 9.50871C16.1234 10.1408 16.5355 10.9595 16.6666 11.8438Z" stroke="white" stroke-width="2" stroke-linecap="round" stroke-linejoin="round"/>
<path d="M18.2292 6.77075H18.2397" stroke="white" stroke-width="2" stroke-linecap="round" stroke-linejoin="round"/>
</svg>
