<svg width="25" height="25" viewBox="0 0 25 25" fill="none" xmlns="http://www.w3.org/2000/svg">
<path d="M23.9584 3.12498C22.9609 3.8286 21.8564 4.36676 20.6876 4.71873C20.0602 3.99738 19.2265 3.48611 18.2991 3.25407C17.3717 3.02202 16.3954 3.08039 15.5022 3.42128C14.6091 3.76218 13.8422 4.36914 13.3053 5.1601C12.7683 5.95105 12.4873 6.88783 12.5001 7.84373V8.88539C10.6695 8.93286 8.85557 8.52687 7.21988 7.70357C5.58419 6.88027 4.17749 5.66522 3.12508 4.16664C3.12508 4.16664 -1.04158 13.5416 8.33341 17.7083C6.18813 19.1645 3.63254 19.8947 1.04175 19.7916C10.4167 25 21.8751 19.7916 21.8751 7.81248C21.8741 7.52232 21.8462 7.23289 21.7917 6.94789C22.8549 5.89945 23.6051 4.57572 23.9584 3.12498V3.12498Z" stroke="white" stroke-width="2" stroke-linecap="round" stroke-linejoin="round"/>
</svg>
