<svg width="25" height="25" viewBox="0 0 25 25" fill="none" xmlns="http://www.w3.org/2000/svg">
<path d="M23.479 6.68758C23.3552 6.19322 23.1032 5.74026 22.7484 5.37446C22.3936 5.00867 21.9485 4.74298 21.4581 4.60425C19.6665 4.16675 12.4999 4.16675 12.4999 4.16675C12.4999 4.16675 5.33325 4.16675 3.54159 4.64591C3.05123 4.78465 2.60616 5.05033 2.25134 5.41613C1.89652 5.78193 1.64451 6.23488 1.52077 6.72925C1.19288 8.54753 1.03248 10.3921 1.04161 12.2397C1.02992 14.1012 1.19033 15.9598 1.52077 17.7917C1.65719 18.2708 1.91484 18.7065 2.26884 19.0568C2.62283 19.4072 3.0612 19.6603 3.54159 19.7917C5.33325 20.2709 12.4999 20.2709 12.4999 20.2709C12.4999 20.2709 19.6665 20.2709 21.4581 19.7917C21.9485 19.653 22.3936 19.3873 22.7484 19.0215C23.1032 18.6557 23.3552 18.2028 23.479 17.7084C23.8043 15.9038 23.9647 14.0733 23.9581 12.2397C23.9698 10.3782 23.8094 8.51956 23.479 6.68758V6.68758Z" stroke="white" stroke-width="2" stroke-linecap="round" stroke-linejoin="round"/>
<path d="M10.1562 15.6458L16.1458 12.2395L10.1562 8.83325V15.6458Z" stroke="white" stroke-width="2" stroke-linecap="round" stroke-linejoin="round"/>
</svg>
